<?xml version="1.0" encoding="UTF-8" standalone="no"?>
<!-- Created with Inkscape (http://www.inkscape.org/) -->

<svg
   id="svg2"
   version="1.1"
   inkscape:version="1.1.2 (0a00cf5339, 2022-02-04)"
   xml:space="preserve"
   width="3254.7349"
   height="3772.1946"
   viewBox="0 0 3254.7349 3772.1946"
   sodipodi:docname="plier2.svg"
   inkscape:export-filename="/home/msg/Downloads/plier2.png"
   inkscape:export-xdpi="12.81"
   inkscape:export-ydpi="12.81"
   xmlns:inkscape="http://www.inkscape.org/namespaces/inkscape"
   xmlns:sodipodi="http://sodipodi.sourceforge.net/DTD/sodipodi-0.dtd"
   xmlns="http://www.w3.org/2000/svg"
   xmlns:svg="http://www.w3.org/2000/svg"
   xmlns:rdf="http://www.w3.org/1999/02/22-rdf-syntax-ns#"
   xmlns:cc="http://creativecommons.org/ns#"
   xmlns:dc="http://purl.org/dc/elements/1.1/"><metadata
     id="metadata8"><rdf:RDF><cc:Work
         rdf:about=""><dc:format>image/svg+xml</dc:format><dc:type
           rdf:resource="http://purl.org/dc/dcmitype/StillImage" /></cc:Work></rdf:RDF></metadata><defs
     id="defs6"><clipPath
       clipPathUnits="userSpaceOnUse"
       id="clipPath16"><path
         d="M 0,0 H 3375 V 3406.25 H 0 Z"
         id="path18"
         inkscape:connector-curvature="0"
         style="clip-rule:evenodd" /></clipPath><clipPath
       clipPathUnits="userSpaceOnUse"
       id="clipPath30"><path
         d="M 0,0 H 3375 V 3375 H 0 Z"
         id="path32"
         inkscape:connector-curvature="0"
         style="clip-rule:evenodd" /></clipPath><clipPath
       clipPathUnits="userSpaceOnUse"
       id="clipPath42"><path
         d="m 1184.6709,581.89929 h 1040.625 V 1688.1493 h -1040.625 z"
         id="path44"
         inkscape:connector-curvature="0"
         style="clip-rule:evenodd" /></clipPath><clipPath
       clipPathUnits="userSpaceOnUse"
       id="clipPath238"><path
         d="M 0,0 H 3375 V 3375 H 0 Z"
         id="path240"
         inkscape:connector-curvature="0"
         style="clip-rule:evenodd" /></clipPath><clipPath
       clipPathUnits="userSpaceOnUse"
       id="clipPath252"><path
         d="M 1705.048,0.00602607 3375,1669.958 v 725.96 L 2395.918,3375 H 1014.1779 L 0,2360.822 5.3978551e-6,1705.054 Z"
         id="path254"
         inkscape:connector-curvature="0"
         style="clip-rule:evenodd" /></clipPath></defs><sodipodi:namedview
     pagecolor="#ffffff"
     bordercolor="#666666"
     borderopacity="1"
     objecttolerance="10"
     gridtolerance="10"
     guidetolerance="10"
     inkscape:pageopacity="0"
     inkscape:pageshadow="2"
     inkscape:window-width="1870"
     inkscape:window-height="1016"
     id="namedview4"
     showgrid="false"
     inkscape:zoom="0.041189058"
     inkscape:cx="-4163.7272"
     inkscape:cy="4236.5621"
     inkscape:window-x="50"
     inkscape:window-y="27"
     inkscape:window-maximized="1"
     inkscape:current-layer="g7873"
     fit-margin-top="0"
     fit-margin-left="-5.9"
     fit-margin-right="0"
     fit-margin-bottom="0"
     inkscape:pagecheckerboard="0" /><g
     id="g10"
     inkscape:groupmode="layer"
     inkscape:label="UMI4Cats (1)"
     transform="matrix(0.29999999,0,0,0.29999999,2385.9197,2047.1312)">
<g
   id="g7873"
   transform="matrix(3.8101816,0,0,3.8101816,-8138.4275,-6554.5469)"><path
     sodipodi:type="star"
     style="fill:#ff9824;fill-opacity:1;stroke:#552e00;stroke-width:66.6667;stroke-linecap:square;stroke-linejoin:round;stroke-miterlimit:4;stroke-dasharray:none;stroke-dashoffset:0;stroke-opacity:1"
     id="path4511"
     sodipodi:sides="6"
     sodipodi:cx="5573.7295"
     sodipodi:cy="749.69604"
     sodipodi:r1="1709.5227"
     sodipodi:r2="1480.4902"
     sodipodi:arg1="0.52359878"
     sodipodi:arg2="1.0471976"
     inkscape:flatsided="true"
     inkscape:rounded="0"
     inkscape:randomized="0"
     d="m 7054.2196,1604.4574 -1480.4901,854.7614 -1480.4901,-854.7614 0,-1709.52271 1480.4901,-854.76135 1480.4901,854.76136 z"
     inkscape:transform-center-x="-2.600311e-05"
     transform="matrix(0.94217164,0,0,0.94675101,-3781.6409,869.6157)"
     inkscape:export-filename="/home/msg/Downloads/path4511.png"
     inkscape:export-xdpi="12.81"
     inkscape:export-ydpi="12.81" /><text
     xml:space="preserve"
     style="font-style:normal;font-weight:normal;line-height:0%;font-family:sans-serif;letter-spacing:0px;word-spacing:0px;fill:#ffffff;fill-opacity:1;stroke:none"
     x="637.29926"
     y="2466.7832"
     id="text4467"><tspan
       sodipodi:role="line"
       id="tspan4469"
       x="637.29926"
       y="2466.7832"
       style="font-size:488.264px;line-height:1.25;fill:#ffffff">PLIER2</tspan></text><g
     id="g10193"
     transform="rotate(12.217052,1196.5696,1672.346)"><g
       id="g248"
       transform="matrix(0.21133314,0.21294862,-0.28934629,0.28544853,2091.0225,-157.94712)"
       style="fill:#ffffff"><g
         id="g250"
         clip-path="url(#clipPath252)"
         style="fill:#ffffff"><g
           id="g256"
           transform="matrix(1.016466,1.016466,-1.016466,1.016466,1705.048,0.00602607)"
           style="fill:#ffffff"><path
             d="M 176.57001,1816 C 313.69,1685.73 125.24701,1496.17 262.38,1365.89 l -59.229,56.268 c -137.119994,130.27 51.315,319.8399 -85.819,450.12 z"
             style="fill:#ffffff;fill-opacity:1;fill-rule:nonzero;stroke:none"
             id="path258"
             inkscape:connector-curvature="0" /><path
             d="m 306.01999,1693 c 137.11999,-130.27 -51.313,-319.84 85.81,-450.11 l -59.249,56.286 c -137.11999,130.27 51.32502,319.83 -85.808,450.11 z"
             style="fill:#ffffff;fill-opacity:1;fill-rule:nonzero;stroke:none"
             id="path260"
             inkscape:connector-curvature="0" /><path
             d="m 657.07001,1359.5 c -137.12,130.27 -316.81,-67.62 -453.91001,62.6281 l 59.228,-56.267 c 137.10999,-130.26 316.77997,67.649 453.90997,-62.627 z"
             style="fill:#ffffff;fill-opacity:1;fill-rule:nonzero;stroke:none"
             id="path262"
             inkscape:connector-curvature="0" /><path
             d="m 716.29999,1303.2 c 137.10998,-130.2601 -51.32398,-319.83 85.81,-450.11003 L 742.854,909.38293 c -137.10998,130.24997 51.34302,319.80997 -85.78003,450.07997 z"
             style="fill:#ffffff;fill-opacity:1;fill-rule:nonzero;stroke:none"
             id="path264"
             inkscape:connector-curvature="0" /><path
             d="m 845.73999,1180.3001 c 137.12,-130.2701 -51.33398,-319.82006 85.80798,-450.11004 l -59.24701,56.284 C 735.18097,916.74408 923.61395,1106.3141 786.49097,1236.584 Z"
             style="fill:#ffffff;fill-opacity:1;fill-rule:nonzero;stroke:none"
             id="path266"
             inkscape:connector-curvature="0" /><path
             d="M 1196.8001,846.79999 C 1059.6801,977.07001 880.01001,779.15997 742.89001,909.427 L 802.146,853.13403 c 137.10998,-130.26001 316.78,67.64698 453.9299,-62.64697 z"
             style="fill:#ffffff;fill-opacity:1;fill-rule:nonzero;stroke:none"
             id="path268"
             inkscape:connector-curvature="0" /><path
             d="m 1256,790.5 c 137.09,-130.23999 -51.343,-319.81 85.809,-450.10999 l -59.268,56.30402 c -137.12,130.27002 51.315,319.84003 -85.81,450.10999 z"
             style="fill:#ffffff;fill-opacity:1;fill-rule:nonzero;stroke:none"
             id="path270"
             inkscape:connector-curvature="0" /><path
             d="m 1385.4,667.54999 c 137.12,-130.27002 -51.313,-319.84 85.81,-450.10999 l -59.2381,56.276 c -137.12,130.27002 51.314,319.84003 -85.81,450.10999 z"
             style="fill:#ffffff;fill-opacity:1;fill-rule:nonzero;stroke:none"
             id="path272"
             inkscape:connector-curvature="0" /><path
             d="m 1736.5,334.03 c -137.12,130.26999 -316.79,-67.63999 -453.91,62.62698 l 59.266,-56.30301 c 137.1099,-130.25 316.76,67.66599 453.9299,-62.638 z"
             style="fill:#ffffff;fill-opacity:1;fill-rule:nonzero;stroke:none"
             id="path274"
             inkscape:connector-curvature="0" /><path
             d="m 217.23,1644.1 57.02699,60.0279 c 4.2937,4.5197 10.72201,5.3803 14.36301,1.9206 3.64279,-3.4605 3.10308,-9.9148 -1.19062,-14.434 l -57.02701,-60.0279 c -4.30279,-4.5295 -10.731,-5.3901 -14.36399,-1.9386 -3.63221,3.4504 -3.11181,9.9232 1.1911,14.453 h 5.2e-4 z"
             style="fill:#ffffff;fill-opacity:1;fill-rule:nonzero;stroke:none"
             id="path276"
             inkscape:connector-curvature="0" /><path
             d="m 204.53,1548.9 100.67999,105.98 c 4.2937,4.5197 10.71201,5.3705 14.35501,1.91 3.64371,-3.4615 3.1026,-9.8962 -1.1911,-14.416 l -100.67999,-105.98 c -4.3029,-4.5292 -10.731,-5.3898 -14.35401,-1.9476 -3.6235,3.4424 -3.1036,9.9337 1.19021,14.453 z"
             style="fill:#ffffff;fill-opacity:1;fill-rule:nonzero;stroke:none"
             id="path278"
             inkscape:connector-curvature="0" /><path
             d="m 201.33,1463.7 113.64,119.62 c 4.2937,4.5196 10.73001,5.4276 14.39301,1.9476 3.66101,-3.4779 3.065,-9.9337 -1.2287,-14.453 l -113.64,-119.62 c -4.3029,-4.5293 -10.72099,-5.3812 -14.344,-1.9389 -3.6244,3.4432 -3.11369,9.925 1.18,14.445 z"
             style="fill:#ffffff;fill-opacity:1;fill-rule:nonzero;stroke:none"
             id="path280"
             inkscape:connector-curvature="0" /><path
             d="m 230.75999,1412.8001 74.52199,78.4439 c 4.30289,4.5293 10.73999,5.3997 14.36301,1.9573 3.62439,-3.4431 3.10461,-9.9344 -1.1983,-14.464 l -74.52201,-78.444 c -4.3029,-4.5294 -10.722,-5.3802 -14.365,-1.9188 -3.64281,3.4606 -3.0934,9.9057 1.20019,14.426 z"
             style="fill:#ffffff;fill-opacity:1;fill-rule:nonzero;stroke:none"
             id="path282"
             inkscape:connector-curvature="0" /><path
             d="m 570.23999,1249.9 86.414,90.963 c 4.2937,4.5197 10.72199,5.3803 14.36298,1.9207 3.64282,-3.4606 3.11267,-9.9242 -1.18103,-14.444 l -86.414,-90.963 c -4.27539,-4.5006 -10.73999,-5.3808 -14.37299,-1.9294 -3.6322,3.4505 -3.08429,9.9521 1.19122,14.452 z"
             style="fill:#ffffff;fill-opacity:1;fill-rule:nonzero;stroke:none"
             id="path284"
             inkscape:connector-curvature="0" /><path
             d="m 483.98999,1241 121.85999,128.28 c 4.2937,4.5197 10.71099,5.3715 14.35498,1.9101 3.64178,-3.4597 3.12201,-9.9145 -1.17182,-14.434 l -121.85998,-128.28 c -4.30289,-4.5294 -10.732,-5.3892 -14.37299,-1.9293 -3.6438,3.4614 -3.1127,9.9239 1.19019,14.453 z"
             style="fill:#ffffff;fill-opacity:1;fill-rule:nonzero;stroke:none"
             id="path286"
             inkscape:connector-curvature="0" /><path
             d="m 420.19,1255.7 113.64002,119.62 c 4.29382,4.5197 10.75897,5.4001 14.393,1.9477 3.63312,-3.4515 3.08521,-9.953 -1.20849,-14.473 l -113.64002,-119.62 c -4.30279,-4.5293 -10.741,-5.3621 -14.36401,-1.9197 -3.62439,3.4432 -3.11371,9.9251 1.17999,14.445 z"
             style="fill:#ffffff;fill-opacity:1;fill-rule:nonzero;stroke:none"
             id="path288"
             inkscape:connector-curvature="0" /><path
             d="m 367.88,1282.5 74.52201,78.444 c 4.30289,4.5294 10.72201,5.4168 14.38299,1.9389 3.663,-3.4798 3.1045,-9.9347 -1.1983,-14.4639 l -74.522,-78.444 c -4.30289,-4.5293 -10.72199,-5.3803 -14.36499,-1.9187 -3.6427,3.4606 -3.1127,9.9239 1.181,14.4439 z"
             style="fill:#ffffff;fill-opacity:1;fill-rule:nonzero;stroke:none"
             id="path290"
             inkscape:connector-curvature="0" /><path
             d="m 756.96002,1131.4 57.02698,60.028 c 4.2937,4.5198 10.72198,5.3804 14.36401,1.9199 3.64179,-3.4598 3.11267,-9.9242 -1.18103,-14.444 l -57.02697,-60.0279 c -4.30298,-4.5293 -10.74103,-5.3799 -14.37299,-1.9293 -3.63312,3.4515 -3.11267,9.924 1.19,14.453 z"
             style="fill:#ffffff;fill-opacity:1;fill-rule:nonzero;stroke:none"
             id="path292"
             inkscape:connector-curvature="0" /><path
             d="m 744.27002,1036.1 100.67999,105.98 c 4.29383,4.5196 10.71198,5.3707 14.35401,1.911 3.64288,-3.4606 3.1026,-9.8961 -1.19098,-14.416 l -100.68,-105.98 c -4.30291,-4.5293 -10.73999,-5.3807 -14.354,-1.9476 -3.61383,3.4332 -3.10248,9.9328 1.19122,14.452 z"
             style="fill:#ffffff;fill-opacity:1;fill-rule:nonzero;stroke:none"
             id="path294"
             inkscape:connector-curvature="0" /><path
             d="m 741.03998,950.92999 113.64001,119.62011 c 4.2937,4.5196 10.75897,5.4 14.39203,1.9487 3.6322,-3.4505 3.08423,-9.9522 -1.20947,-14.4721 L 754.22253,938.40674 c -4.30291,-4.52942 -10.70202,-5.39862 -14.36297,-1.92072 -3.66303,3.47992 -3.11267,9.92408 1.18103,14.44403 z"
             style="fill:#ffffff;fill-opacity:1;fill-rule:nonzero;stroke:none"
             id="path296"
             inkscape:connector-curvature="0" /><path
             d="m 770.48999,900.03003 74.52197,78.44397 c 4.30292,4.5293 10.73999,5.3996 14.35401,1.96637 3.61377,-3.43323 3.10339,-9.93372 -1.19928,-14.46301 l -74.52204,-78.44403 c -4.30298,-4.5293 -10.72198,-5.38031 -14.36401,-1.91962 -3.64172,3.45972 -3.08368,9.8966 1.21002,14.41601 z"
             style="fill:#ffffff;fill-opacity:1;fill-rule:nonzero;stroke:none"
             id="path298"
             inkscape:connector-curvature="0" /><path
             d="m 1110,737.15997 86.4141,90.96302 c 4.2938,4.51971 10.701,5.39947 14.334,1.94812 3.6341,-3.4524 3.1136,-9.92499 -1.18,-14.44501 l -86.4141,-90.96301 c -4.2753,-4.50043 -10.711,-5.40821 -14.374,-1.92841 -3.661,3.47803 -3.0553,9.92462 1.2201,14.42499 z"
             style="fill:#ffffff;fill-opacity:1;fill-rule:nonzero;stroke:none"
             id="path300"
             inkscape:connector-curvature="0" /><path
             d="m 1023.7,728.23999 121.8601,128.28003 c 4.2935,4.51971 10.693,5.38898 14.3559,1.90918 3.6612,-3.47803 3.0631,-9.85858 -1.2306,-14.37799 l -121.86,-128.27997 c -4.3028,-4.5293 -10.682,-5.43658 -14.315,-1.98523 -3.6341,3.45227 -3.1137,9.92493 1.1893,14.45398 z"
             style="fill:#ffffff;fill-opacity:1;fill-rule:nonzero;stroke:none"
             id="path302"
             inkscape:connector-curvature="0" /><path
             d="m 959.92999,742.98999 113.64001,119.62 c 4.2937,4.51971 10.759,5.40002 14.3919,1.94848 3.6331,-3.45141 3.0852,-9.953 -1.2087,-14.47302 l -113.64004,-119.62 c -4.3028,-4.52929 -10.73102,-5.37121 -14.36401,-1.91967 -3.63312,3.45141 -3.1128,9.92407 1.1809,14.44397 z"
             style="fill:#ffffff;fill-opacity:1;fill-rule:nonzero;stroke:none"
             id="path304"
             inkscape:connector-curvature="0" /><path
             d="m 907.60999,769.77002 74.52197,78.44397 c 4.30298,4.5293 10.72198,5.41687 14.38299,1.93903 3.66305,-3.47992 3.10358,-9.93378 -1.19922,-14.46302 L 920.7937,757.24597 c -4.30298,-4.5293 -10.73102,-5.37109 -14.36401,-1.91962 -3.63202,3.45051 -3.11267,9.92402 1.18109,14.44404 z"
             style="fill:#ffffff;fill-opacity:1;fill-rule:nonzero;stroke:none"
             id="path306"
             inkscape:connector-curvature="0" /><path
             d="m 1296.7,618.65002 57.0269,60.02802 c 4.2939,4.51971 10.741,5.362 14.364,1.91968 3.6246,-3.44318 3.1138,-9.92499 -1.18,-14.44501 l -57.027,-60.02802 c -4.3028,-4.52929 -10.74,-5.38079 -14.374,-1.9284 -3.6331,3.45142 -3.1127,9.92401 1.1901,14.453 z"
             style="fill:#ffffff;fill-opacity:1;fill-rule:nonzero;stroke:none"
             id="path308"
             inkscape:connector-curvature="0" /><path
             d="M 1284,523.39001 1384.6801,629.37 c 4.2935,4.51971 10.703,5.37969 14.3549,1.90997 3.6043,-3.42389 3.0929,-9.8869 -1.2007,-14.40698 l -100.68,-105.98002 c -4.3029,-4.52938 -10.74,-5.38079 -14.344,-1.95678 -3.6433,3.4794 -3.1038,9.93381 1.1899,14.45297 z"
             style="fill:#ffffff;fill-opacity:1;fill-rule:nonzero;stroke:none"
             id="path310"
             inkscape:connector-curvature="0" /><path
             d="m 1280.8001,438.19 113.64,119.62 c 4.2935,4.51971 10.758,5.401 14.3919,1.94861 3.6333,-3.45142 3.0854,-9.95301 -1.2083,-14.47303 L 1293.9836,425.66559 c -4.3028,-4.5293 -10.7309,-5.37119 -14.364,-1.91971 -3.6339,3.45239 -3.1125,9.9241 1.1811,14.444 z"
             style="fill:#ffffff;fill-opacity:1;fill-rule:nonzero;stroke:none"
             id="path312"
             inkscape:connector-curvature="0" /><path
             d="m 1310.2,387.29001 74.5219,78.444 c 4.3029,4.52939 10.7491,5.39041 14.354,1.9664 3.6513,-3.4689 3.1034,-9.93369 -1.1993,-14.46301 l -74.522,-78.444 c -4.3028,-4.52939 -10.713,-5.38861 -14.364,-1.91971 -3.6042,3.42401 -3.0837,9.8966 1.21,14.41598 z"
             style="fill:#ffffff;fill-opacity:1;fill-rule:nonzero;stroke:none"
             id="path314"
             inkscape:connector-curvature="0" /><path
             d="m 1649.7,224.42 86.414,90.963 c 4.2938,4.51971 10.703,5.3977 14.335,1.9472 3.633,-3.45139 3.1128,-9.9241 -1.1811,-14.444 l -86.4139,-90.963 c -4.2754,-4.50039 -10.75,-5.37159 -14.373,-1.9293 -3.6225,3.4414 -3.0563,9.9255 1.2192,14.42599 z"
             style="fill:#ffffff;fill-opacity:1;fill-rule:nonzero;stroke:none"
             id="path316"
             inkscape:connector-curvature="0" /><path
             d="m 1563.5,215.5 121.86,128.28 c 4.2938,4.51971 10.704,5.379 14.355,1.91009 3.6532,-3.47061 3.0649,-9.86041 -1.2288,-14.38 l -121.86,-128.28 c -4.3028,-4.5293 -10.682,-5.43559 -14.317,-1.98331 -3.633,3.4514 -3.1125,9.924 1.1902,14.45301 z"
             style="fill:#ffffff;fill-opacity:1;fill-rule:nonzero;stroke:none"
             id="path318"
             inkscape:connector-curvature="0" /><path
             d="m 1499.7,230.24001 113.64,119.62001 c 4.2937,4.51971 10.7679,5.3909 14.3919,1.9486 3.6226,-3.4414 3.094,-9.96121 -1.1997,-14.48098 l -113.64,-119.62 c -4.3028,-4.5293 -10.741,-5.362 -14.373,-1.91141 -3.6331,3.4514 -3.1128,9.92411 1.1809,14.444 z"
             style="fill:#ffffff;fill-opacity:1;fill-rule:nonzero;stroke:none"
             id="path320"
             inkscape:connector-curvature="0" /><path
             d="m 1447.3001,257.01999 74.5219,78.444 c 4.3029,4.52939 10.729,5.40961 14.3831,1.93899 3.6515,-3.4689 3.1122,-9.94198 -1.1906,-14.471 l -74.5219,-78.444 c -4.3029,-4.5293 -10.741,-5.362 -14.3731,-1.91141 -3.633,3.4514 -3.1125,9.92399 1.1812,14.444 z"
             style="fill:#ffffff;fill-opacity:1;fill-rule:nonzero;stroke:none"
             id="path322"
             inkscape:connector-curvature="0" /><path
             d="m 786.5,1236.6 c -137.12,130.27 -316.79001,-67.6381 -453.92001,62.629 l 59.24899,-56.286 c 137.11999,-130.27 316.77002,67.657 453.91003,-62.6281 z"
             style="fill:#ffffff;fill-opacity:1;fill-rule:nonzero;stroke:none"
             id="path324"
             inkscape:connector-curvature="0" /><path
             d="M 1326.2,723.84998 C 1189.08,854.12 1009.4099,656.21198 872.27991,786.479 l 59.24902,-56.28601 C 1068.6489,599.92297 1248.319,797.83301 1385.439,667.56598 Z"
             style="fill:#ffffff;fill-opacity:1;fill-rule:nonzero;stroke:none"
             id="path326"
             inkscape:connector-curvature="0" /><path
             d="m 1865.9,211.08 c -137.12,130.27001 -316.79,-67.638 -453.93,62.63802 l 59.239,-56.27701 c 137.12,-130.270005 316.79,67.63998 453.92,-62.636 z"
             style="fill:#ffffff;fill-opacity:1;fill-rule:nonzero;stroke:none"
             id="path328"
             inkscape:connector-curvature="0" /></g></g></g><path
       fill="#000000"
       opacity="1"
       stroke="none"
       d="m 1029.0094,1842.1928 c -57.91352,46.149 -114.53592,90.8017 -146.90182,158.801 -11.431,24.0161 -40.2342,30.2387 -61.43621,18.1597 -22.92383,-13.0598 -28.18342,-32.1578 -15.0126,-58.815 33.48391,-67.7676 87.93581,-118.094 142.44131,-167.947 31.0166,-28.3692 63.28972,-55.6768 97.08452,-80.6358 86.7959,-64.1026 146.6663,-148.189 190.3102,-245.6432 32.7257,-73.075 63.126,-147.345 107.109,-214.9467 27.0269,-41.5406 60.9623,-77.2238 92.9845,-114.5583 8.5487,-9.9668 13.2974,-18.1992 3.5126,-30.9918 -9.2428,-12.083 -18.6716,-16.7183 -32.3896,-9.7501 -115.9767,58.9157 -241.7972,74.6541 -369.0145,83.7067 -121.21672,8.6256 -229.46649,50.0829 -329.05282,119.825 -71.59803,50.1411 -149.13537,91.002 -233.05069,117.9517 -18.8977,6.0692 -38.15601,11.4234 -58.14818,11.8493 -24.35598,0.5192 -40.24727,-11.4065 -43.94002,-31.6435 -4.38863,-24.0475 7.11566,-48.9272 30.62746,-52.1689 105.68479,-14.5722 187.79737,-76.4334 269.30663,-136.1844 105.40883,-77.2699 225.0213,-111.0467 350.27002,-134.0665 92.0999,-16.9274 183.886,-35.8565 275.7775,-53.7456 35.7326,-6.9561 64.2418,-22.59525 94.7667,-37.86705 18.09,-9.0504 34.672,-20.1699 56.5461,-22.802 12.2546,-1.4749 31.234,-9.3111 29.556,-31.2258 -0.3167,-4.1372 5.4478,-9.2104 9.187,-13.1016 12.099,-12.5887 25.3039,-24.1832 36.7279,-37.3366 23.5534,-27.1192 52.4303,-44.3676 86.6473,-55.49976 40.7354,-13.25243 80.1603,-30.48582 120.4985,-45.03609 11.4919,-4.14487 24.5674,-16.55286 36.2583,-0.51538 12.4113,17.02568 -5.0411,24.21081 -13.2133,32.85089 -42.5654,45.00254 -85.9173,89.26124 -128.9883,133.78554 -3.3135,3.4253 -6.5554,6.9194 -9.855,10.3582 -7.2593,7.5653 -11.0069,15.2859 -3.4017,25.1834 7.4221,9.6587 15.4444,5.5073 23.3414,1.7785 57.4544,-27.1302 114.841,-54.4041 172.2426,-81.6462 5.0228,-2.3838 9.9472,-4.9787 15.0046,-7.284 9.9344,-4.5284 19.6861,-11.8892 29.2678,1.3698 8.5517,11.8344 0.4633,18.9593 -6.0852,26.9108 -37.864,45.9761 -75.7442,91.93945 -113.5212,137.98685 -5.655,6.8932 -12.2856,12.1906 -20.3359,16.0854 -27.162,13.1427 -54.6515,25.7175 -81.0961,40.1896 -14.3263,7.8404 -33.1907,-5.4666 -44.8963,12.201 -28.4623,42.9305 -80.368,67.2565 -103.8602,109.9709 -29.5309,53.6947 -62.3852,105.603 -91.2921,159.7147 -40.7374,76.2602 -84.0638,151.1814 -130.4407,224.3358 -36.7615,57.9868 -83.6431,105.5579 -137.5493,147.0033 -31.4838,24.2062 -63.0832,48.2619 -95.9862,73.3932 z"
       id="path2"
       style="fill:#ffffff;stroke-width:4.76835" /></g></g></g></svg>
